<?xml version="1.0" standalone="no"?>
<!DOCTYPE svg PUBLIC "-//W3C//DTD SVG 20010904//EN"
 "http://www.w3.org/TR/2001/REC-SVG-20010904/DTD/svg10.dtd">
<svg version="1.0" xmlns="http://www.w3.org/2000/svg"
 width="16.000000pt" height="16.000000pt" viewBox="0 0 16.000000 16.000000"
 preserveAspectRatio="xMidYMid meet">
<metadata>
Created by potrace 1.11, written by Peter Selinger 2001-2013
</metadata>
<g transform="translate(0.000000,16.000000) scale(0.003125,-0.003125)"
fill="#000000" stroke="none">
<path d="M2332 5109 c-311 -28 -620 -115 -901 -255 -279 -139 -448 -260 -676
-489 -228 -228 -350 -397 -489 -675 -275 -553 -337 -1182 -178 -1791 80 -306
235 -622 436 -888 90 -120 301 -339 420 -435 201 -163 499 -333 740 -421 319
-117 703 -171 1038 -147 357 25 640 100 953 251 253 122 455 264 664 466 220
214 378 430 511 700 94 190 139 311 185 489 117 461 110 913 -20 1367 -36 124
-124 359 -135 359 -3 0 -514 -502 -1136 -1116 -650 -643 -1143 -1122 -1161
-1130 -38 -17 -120 -18 -160 -3 -15 5 -113 94 -218 197 -880 868 -1205 1193
-1219 1220 -20 38 -20 82 -2 125 18 41 451 472 489 486 42 16 98 13 134 -6 17
-10 221 -205 453 -433 231 -228 424 -416 428 -418 4 -1 208 204 452 455 244
252 650 670 901 928 251 259 458 475 460 480 5 15 -193 177 -326 266 -134 90
-389 219 -540 275 -334 122 -741 175 -1103 143z"/>
</g>
</svg>
